<svg xmlns="http://www.w3.org/2000/svg" viewBox="0 0 240 180" role="img" aria-labelledby="title desc">
  <title id="title">Rider on horseback with lasso</title>
  <desc id="desc">A playful line drawing of a cowboy riding a horse and swinging a lasso.</desc>
  <g fill="none" stroke-linecap="round" stroke-linejoin="round" stroke-width="6">
    <circle cx="164" cy="42" r="24" stroke="#cc8d2a"/>
    <path d="M144 56 C134 64, 126 72, 122 90" stroke="#cc8d2a"/>
    <circle cx="112" cy="48" r="12" stroke="#71451f"/>
    <path d="M92 40 C103 34, 121 34, 132 40" stroke="#71451f"/>
    <path d="M103 38 L107 26 L121 26 L124 38" stroke="#71451f"/>
    <path d="M112 60 L116 84 L128 96" stroke="#71451f"/>
    <path d="M113 66 L132 74" stroke="#71451f"/>
    <path d="M68 98 C88 76, 132 76, 160 94" stroke="#71451f"/>
    <path d="M160 94 C172 82, 182 82, 192 90" stroke="#71451f"/>
    <path d="M192 90 C204 92, 208 102, 202 112 C194 118, 182 116, 178 108" stroke="#71451f"/>
    <path d="M66 98 C58 118, 58 132, 76 136 L160 136 C174 132, 178 116, 172 102" stroke="#71451f"/>
    <path d="M66 100 C52 102, 48 114, 54 126" stroke="#71451f"/>
    <path d="M86 136 L80 166" stroke="#71451f"/>
    <path d="M112 136 L108 168" stroke="#71451f"/>
    <path d="M146 136 L150 168" stroke="#71451f"/>
    <path d="M168 134 L176 166" stroke="#71451f"/>
    <path d="M34 168 H208" stroke="#71451f"/>
  </g>
</svg>
